<svg width="24" height="24" viewBox="0 0 60 60" xmlns="http://www.w3.org/2000/svg">
	<path d="M9.5683594,52.012207h2.1464844V54h6.6621094v-1.987793h23.2460938V54h6.6621094v-1.987793h2.1464844  C52.3994141,52.012207,54,50.4116211,54,48.4438477V9.5683594C54,7.6005859,52.3994141,6,50.4316406,6H9.5683594  C7.6005859,6,6,7.6005859,6,9.5683594v38.8754883C6,50.4116211,7.6005859,52.012207,9.5683594,52.012207z M8,9.5683594  C8,8.7036133,8.7036133,8,9.5683594,8h40.8632813C51.296875,8,52,8.7036133,52,9.5683594v38.8754883  c0,0.8647461-0.703125,1.5683594-1.5683594,1.5683594H9.5683594C8.7036133,50.012207,8,49.3085938,8,48.4438477V9.5683594z" />
	<path d="M49,10.9697266H11v36.0722656h38V10.9697266z M47,45.0419922H13V12.9697266h34V45.0419922z" />
	<path d="M31,38.4335938c5.2265625,0,9.4785156-4.2294922,9.4785156-9.4277344S36.2265625,19.5786133,31,19.5786133  s-9.4785156,4.2290039-9.4785156,9.4272461S25.7734375,38.4335938,31,38.4335938z M31,21.5786133  c4.1240234,0,7.4785156,3.3320313,7.4785156,7.4272461c0,4.0957031-3.3544922,7.4277344-7.4785156,7.4277344  c-4.1235352,0-7.4785156-3.3320313-7.4785156-7.4277344C23.5214844,24.9106445,26.8764648,21.5786133,31,21.5786133z" />
	<path d="M31,33.9833984c2.7578125,0,5.0019531-2.2329102,5.0019531-4.9775391S33.7578125,24.0283203,31,24.0283203  s-5.0014648,2.2329102-5.0014648,4.9775391S28.2421875,33.9833984,31,33.9833984z M31,26.0283203  c1.6552734,0,3.0019531,1.3359375,3.0019531,2.9775391S32.6552734,31.9833984,31,31.9833984  c-1.6547852,0-3.0014648-1.3359375-3.0014648-2.9775391S29.3452148,26.0283203,31,26.0283203z" />
	<rect x="16.1367188" y="25.75" width="2" height="6.512207" />
</svg>